<svg width="170" height="60" viewBox="0 0 170 60" fill="none" xmlns="http://www.w3.org/2000/svg">
<rect x="7.40741" y="5.55542" width="162.593" height="54.4444" fill="#8F47A8"/>
<rect x="1" y="1" width="160.593" height="52.4444" fill="white" stroke="black" stroke-width="2"/>
<path d="M39.9096 45.9259L38.6384 44.1037C38.5851 44.1096 38.5051 44.1126 38.3984 44.1126H36.994V45.9259H35.8384V39.7037H38.3984C38.9377 39.7037 39.4058 39.7926 39.8029 39.9704C40.2058 40.1482 40.514 40.403 40.7273 40.7348C40.9407 41.0667 41.0473 41.4608 41.0473 41.9171C41.0473 42.3852 40.9318 42.7882 40.7007 43.1259C40.4755 43.4637 40.1496 43.7156 39.7229 43.8815L41.154 45.9259H39.9096ZM39.8829 41.9171C39.8829 41.52 39.7525 41.2148 39.4918 41.0015C39.231 40.7882 38.8488 40.6815 38.3451 40.6815H36.994V43.1615H38.3451C38.8488 43.1615 39.231 43.0548 39.4918 42.8415C39.7525 42.6222 39.8829 42.3141 39.8829 41.9171Z" fill="black"/>
<path d="M44.3668 45.9882C43.8868 45.9882 43.4543 45.8845 43.0691 45.6771C42.6839 45.4696 42.3817 45.1822 42.1624 44.8148C41.9491 44.4415 41.8424 44.0208 41.8424 43.5526C41.8424 43.0845 41.9491 42.6667 42.1624 42.2993C42.3817 41.9319 42.6839 41.6445 43.0691 41.4371C43.4543 41.2296 43.8868 41.1259 44.3668 41.1259C44.8528 41.1259 45.2883 41.2296 45.6735 41.4371C46.0587 41.6445 46.358 41.9319 46.5713 42.2993C46.7905 42.6667 46.9002 43.0845 46.9002 43.5526C46.9002 44.0208 46.7905 44.4415 46.5713 44.8148C46.358 45.1822 46.0587 45.4696 45.6735 45.6771C45.2883 45.8845 44.8528 45.9882 44.3668 45.9882ZM44.3668 45.0371C44.7757 45.0371 45.1135 44.9008 45.3802 44.6282C45.6468 44.3556 45.7802 43.9971 45.7802 43.5526C45.7802 43.1082 45.6468 42.7496 45.3802 42.4771C45.1135 42.2045 44.7757 42.0682 44.3668 42.0682C43.958 42.0682 43.6202 42.2045 43.3535 42.4771C43.0928 42.7496 42.9624 43.1082 42.9624 43.5526C42.9624 43.9971 43.0928 44.3556 43.3535 44.6282C43.6202 44.9008 43.958 45.0371 44.3668 45.0371Z" fill="black"/>
<path d="M50.1405 45.9882C49.6486 45.9882 49.2071 45.8845 48.816 45.6771C48.4249 45.4696 48.1197 45.1822 47.9005 44.8148C47.6812 44.4415 47.5716 44.0208 47.5716 43.5526C47.5716 43.0845 47.6812 42.6667 47.9005 42.2993C48.1197 41.9319 48.4219 41.6445 48.8071 41.4371C49.1982 41.2296 49.6427 41.1259 50.1405 41.1259C50.6086 41.1259 51.0175 41.2208 51.3671 41.4104C51.7227 41.6 51.9893 41.8726 52.1671 42.2282L51.3138 42.7259C51.1775 42.5067 51.0056 42.3437 50.7982 42.2371C50.5968 42.1245 50.3745 42.0682 50.1316 42.0682C49.7168 42.0682 49.373 42.2045 49.1005 42.4771C48.8279 42.7437 48.6916 43.1022 48.6916 43.5526C48.6916 44.003 48.8249 44.3645 49.0916 44.6371C49.3642 44.9037 49.7108 45.0371 50.1316 45.0371C50.3745 45.0371 50.5968 44.9837 50.7982 44.8771C51.0056 44.7645 51.1775 44.5985 51.3138 44.3793L52.1671 44.8771C51.9834 45.2326 51.7138 45.5082 51.3582 45.7037C51.0086 45.8934 50.6027 45.9882 50.1405 45.9882Z" fill="black"/>
<path d="M55.022 43.8904L54.1953 44.6726V45.9259H53.0842V39.3304H54.1953V43.3126L56.4975 41.1793H57.8309L55.8486 43.1704L58.0175 45.9259H56.6664L55.022 43.8904Z" fill="black"/>
<path d="M63.8585 39.7037C64.3978 39.7037 64.8659 39.7926 65.263 39.9704C65.6659 40.1482 65.9741 40.403 66.1874 40.7348C66.4007 41.0667 66.5074 41.4608 66.5074 41.9171C66.5074 42.3674 66.4007 42.7615 66.1874 43.0993C65.9741 43.4311 65.6659 43.6859 65.263 43.8637C64.8659 44.0415 64.3978 44.1304 63.8585 44.1304H62.4541V45.9259H61.2985V39.7037H63.8585ZM63.8052 43.1526C64.3089 43.1526 64.6911 43.0459 64.9518 42.8326C65.2126 42.6193 65.343 42.3141 65.343 41.9171C65.343 41.52 65.2126 41.2148 64.9518 41.0015C64.6911 40.7882 64.3089 40.6815 63.8052 40.6815H62.4541V43.1526H63.8052Z" fill="black"/>
<path d="M69.3246 41.1259C70.0239 41.1259 70.5572 41.2948 70.9246 41.6326C71.298 41.9645 71.4846 42.4682 71.4846 43.1437V45.9259H70.4357V45.3482C70.2994 45.5556 70.1039 45.7156 69.8491 45.8282C69.6002 45.9348 69.298 45.9882 68.9424 45.9882C68.5868 45.9882 68.2757 45.9289 68.0091 45.8104C67.7424 45.6859 67.535 45.5171 67.3868 45.3037C67.2446 45.0845 67.1735 44.8385 67.1735 44.5659C67.1735 44.1393 67.3306 43.7985 67.6446 43.5437C67.9646 43.283 68.4654 43.1526 69.1469 43.1526H70.3735V43.0815C70.3735 42.7496 70.2728 42.4948 70.0713 42.3171C69.8757 42.1393 69.5824 42.0504 69.1913 42.0504C68.9246 42.0504 68.6609 42.0919 68.4002 42.1748C68.1454 42.2578 67.9291 42.3734 67.7513 42.5215L67.3157 41.7126C67.5646 41.523 67.8639 41.3778 68.2135 41.2771C68.5631 41.1763 68.9335 41.1259 69.3246 41.1259ZM69.1735 45.1793C69.452 45.1793 69.698 45.1171 69.9113 44.9926C70.1306 44.8622 70.2846 44.6785 70.3735 44.4415V43.8904H69.2268C68.5868 43.8904 68.2668 44.1008 68.2668 44.5215C68.2668 44.723 68.3468 44.883 68.5068 45.0015C68.6668 45.12 68.8891 45.1793 69.1735 45.1793Z" fill="black"/>
<path d="M75.5417 41.1259C76.0039 41.1259 76.4158 41.2267 76.7773 41.4282C77.1447 41.6296 77.4321 41.9141 77.6395 42.2815C77.8469 42.6489 77.9506 43.0726 77.9506 43.5526C77.9506 44.0326 77.8469 44.4593 77.6395 44.8326C77.4321 45.2 77.1447 45.4845 76.7773 45.6859C76.4158 45.8874 76.0039 45.9882 75.5417 45.9882C74.9017 45.9882 74.395 45.7748 74.0217 45.3482V47.6504H72.9106V41.1793H73.9684V41.8015C74.1521 41.5763 74.3773 41.4074 74.6439 41.2948C74.9165 41.1822 75.2158 41.1259 75.5417 41.1259ZM75.4173 45.0371C75.8262 45.0371 76.161 44.9008 76.4217 44.6282C76.6884 44.3556 76.8217 43.9971 76.8217 43.5526C76.8217 43.1082 76.6884 42.7496 76.4217 42.4771C76.161 42.2045 75.8262 42.0682 75.4173 42.0682C75.1506 42.0682 74.9106 42.1304 74.6973 42.2548C74.4839 42.3734 74.315 42.5452 74.1906 42.7704C74.0662 42.9956 74.0039 43.2563 74.0039 43.5526C74.0039 43.8489 74.0662 44.1096 74.1906 44.3348C74.315 44.56 74.4839 44.7348 74.6973 44.8593C74.9106 44.9778 75.1506 45.0371 75.4173 45.0371Z" fill="black"/>
<path d="M83.4666 43.5793C83.4666 43.6563 83.4606 43.7659 83.4488 43.9082H79.7243C79.7895 44.2578 79.9584 44.5363 80.231 44.7437C80.5095 44.9452 80.8532 45.0459 81.2621 45.0459C81.7836 45.0459 82.2132 44.8741 82.551 44.5304L83.1466 45.2148C82.9332 45.4696 82.6636 45.6622 82.3377 45.7926C82.0118 45.923 81.6444 45.9882 81.2355 45.9882C80.714 45.9882 80.2547 45.8845 79.8577 45.6771C79.4606 45.4696 79.1525 45.1822 78.9332 44.8148C78.7199 44.4415 78.6132 44.0208 78.6132 43.5526C78.6132 43.0904 78.7169 42.6756 78.9244 42.3082C79.1377 41.9348 79.431 41.6445 79.8044 41.4371C80.1777 41.2296 80.5984 41.1259 81.0666 41.1259C81.5288 41.1259 81.9406 41.2296 82.3021 41.4371C82.6695 41.6385 82.954 41.9259 83.1555 42.2993C83.3629 42.6667 83.4666 43.0934 83.4666 43.5793ZM81.0666 42.0148C80.711 42.0148 80.4088 42.1215 80.1599 42.3348C79.9169 42.5422 79.7688 42.8208 79.7155 43.1704H82.4088C82.3614 42.8267 82.2162 42.5482 81.9732 42.3348C81.7303 42.1215 81.4281 42.0148 81.0666 42.0148Z" fill="black"/>
<path d="M85.5916 41.8726C85.9116 41.3748 86.4746 41.1259 87.2805 41.1259V42.1837C87.1857 42.1659 87.0998 42.1571 87.0228 42.1571C86.5902 42.1571 86.2524 42.2845 86.0094 42.5393C85.7665 42.7882 85.645 43.1496 85.645 43.6237V45.9259H84.5339V41.1793H85.5916V41.8726Z" fill="black"/>
<path d="M92.7587 46.0148C92.2787 46.0148 91.8135 45.9467 91.3631 45.8104C90.9187 45.6741 90.5661 45.4934 90.3053 45.2682L90.7053 44.3704C90.9601 44.5719 91.2713 44.7378 91.6387 44.8682C92.012 44.9926 92.3853 45.0548 92.7587 45.0548C93.2209 45.0548 93.5646 44.9808 93.7898 44.8326C94.0209 44.6845 94.1364 44.4889 94.1364 44.2459C94.1364 44.0682 94.0713 43.923 93.9409 43.8104C93.8164 43.6919 93.6564 43.6 93.4609 43.5348C93.2653 43.4696 92.9987 43.3956 92.6609 43.3126C92.1868 43.2 91.8016 43.0874 91.5053 42.9748C91.215 42.8622 90.9631 42.6874 90.7498 42.4504C90.5424 42.2074 90.4387 41.8815 90.4387 41.4726C90.4387 41.1289 90.5305 40.8178 90.7142 40.5393C90.9038 40.2548 91.1853 40.0296 91.5587 39.8637C91.9379 39.6978 92.4001 39.6148 92.9453 39.6148C93.3246 39.6148 93.6979 39.6622 94.0653 39.7571C94.4327 39.8519 94.7498 39.9882 95.0164 40.1659L94.652 41.0637C94.3794 40.9037 94.095 40.7822 93.7987 40.6993C93.5024 40.6163 93.215 40.5748 92.9364 40.5748C92.4801 40.5748 92.1394 40.6519 91.9142 40.8059C91.695 40.96 91.5853 41.1645 91.5853 41.4193C91.5853 41.5971 91.6475 41.7422 91.772 41.8548C91.9024 41.9674 92.0653 42.0563 92.2609 42.1215C92.4564 42.1867 92.7231 42.2608 93.0609 42.3437C93.5231 42.4504 93.9024 42.563 94.1987 42.6815C94.495 42.7941 94.7468 42.9689 94.9542 43.2059C95.1675 43.443 95.2742 43.763 95.2742 44.1659C95.2742 44.5096 95.1794 44.8208 94.9898 45.0993C94.8061 45.3778 94.5246 45.6 94.1453 45.7659C93.7661 45.9319 93.3038 46.0148 92.7587 46.0148Z" fill="black"/>
<path d="M98.4912 45.9882C97.9993 45.9882 97.5578 45.8845 97.1667 45.6771C96.7756 45.4696 96.4704 45.1822 96.2512 44.8148C96.0319 44.4415 95.9223 44.0208 95.9223 43.5526C95.9223 43.0845 96.0319 42.6667 96.2512 42.2993C96.4704 41.9319 96.7726 41.6445 97.1578 41.4371C97.5489 41.2296 97.9934 41.1259 98.4912 41.1259C98.9593 41.1259 99.3682 41.2208 99.7178 41.4104C100.073 41.6 100.34 41.8726 100.518 42.2282L99.6645 42.7259C99.5282 42.5067 99.3563 42.3437 99.1489 42.2371C98.9475 42.1245 98.7252 42.0682 98.4823 42.0682C98.0675 42.0682 97.7237 42.2045 97.4512 42.4771C97.1786 42.7437 97.0423 43.1022 97.0423 43.5526C97.0423 44.003 97.1756 44.3645 97.4423 44.6371C97.7149 44.9037 98.0615 45.0371 98.4823 45.0371C98.7252 45.0371 98.9475 44.9837 99.1489 44.8771C99.3563 44.7645 99.5282 44.5985 99.6645 44.3793L100.518 44.8771C100.334 45.2326 100.064 45.5082 99.7089 45.7037C99.3593 45.8934 98.9534 45.9882 98.4912 45.9882Z" fill="black"/>
<path d="M101.478 41.1793H102.589V45.9259H101.478V41.1793ZM102.038 40.3971C101.837 40.3971 101.668 40.3348 101.532 40.2104C101.395 40.08 101.327 39.92 101.327 39.7304C101.327 39.5408 101.395 39.3837 101.532 39.2593C101.668 39.1289 101.837 39.0637 102.038 39.0637C102.24 39.0637 102.409 39.1259 102.545 39.2504C102.681 39.3689 102.749 39.52 102.749 39.7037C102.749 39.8993 102.681 40.0652 102.545 40.2015C102.415 40.3319 102.246 40.3971 102.038 40.3971Z" fill="black"/>
<path d="M105.514 45.9882C105.129 45.9882 104.753 45.9378 104.386 45.8371C104.018 45.7363 103.725 45.6089 103.506 45.4548L103.932 44.6104C104.146 44.7526 104.4 44.8682 104.697 44.9571C104.999 45.04 105.295 45.0815 105.586 45.0815C106.249 45.0815 106.581 44.9067 106.581 44.5571C106.581 44.3911 106.495 44.2756 106.323 44.2104C106.157 44.1452 105.888 44.083 105.514 44.0237C105.123 43.9645 104.803 43.8963 104.554 43.8193C104.311 43.7422 104.098 43.6089 103.914 43.4193C103.737 43.2237 103.648 42.9541 103.648 42.6104C103.648 42.16 103.834 41.8015 104.208 41.5348C104.587 41.2622 105.097 41.1259 105.737 41.1259C106.063 41.1259 106.388 41.1645 106.714 41.2415C107.04 41.3126 107.307 41.4104 107.514 41.5348L107.088 42.3793C106.685 42.1422 106.231 42.0237 105.728 42.0237C105.402 42.0237 105.153 42.0741 104.981 42.1748C104.815 42.2696 104.732 42.3971 104.732 42.5571C104.732 42.7348 104.821 42.8622 104.999 42.9393C105.183 43.0104 105.464 43.0785 105.843 43.1437C106.223 43.203 106.534 43.2711 106.777 43.3482C107.02 43.4252 107.227 43.5556 107.399 43.7393C107.577 43.923 107.666 44.1837 107.666 44.5215C107.666 44.9659 107.473 45.3215 107.088 45.5882C106.703 45.8548 106.178 45.9882 105.514 45.9882Z" fill="black"/>
<path d="M110.089 45.9882C109.704 45.9882 109.328 45.9378 108.96 45.8371C108.593 45.7363 108.299 45.6089 108.08 45.4548L108.507 44.6104C108.72 44.7526 108.975 44.8682 109.271 44.9571C109.574 45.04 109.87 45.0815 110.16 45.0815C110.824 45.0815 111.156 44.9067 111.156 44.5571C111.156 44.3911 111.07 44.2756 110.898 44.2104C110.732 44.1452 110.462 44.083 110.089 44.0237C109.698 43.9645 109.378 43.8963 109.129 43.8193C108.886 43.7422 108.673 43.6089 108.489 43.4193C108.311 43.2237 108.222 42.9541 108.222 42.6104C108.222 42.16 108.409 41.8015 108.782 41.5348C109.162 41.2622 109.671 41.1259 110.311 41.1259C110.637 41.1259 110.963 41.1645 111.289 41.2415C111.615 41.3126 111.882 41.4104 112.089 41.5348L111.662 42.3793C111.259 42.1422 110.806 42.0237 110.302 42.0237C109.976 42.0237 109.728 42.0741 109.556 42.1748C109.39 42.2696 109.307 42.3971 109.307 42.5571C109.307 42.7348 109.396 42.8622 109.574 42.9393C109.757 43.0104 110.039 43.0785 110.418 43.1437C110.797 43.203 111.108 43.2711 111.351 43.3482C111.594 43.4252 111.802 43.5556 111.974 43.7393C112.151 43.923 112.24 44.1837 112.24 44.5215C112.24 44.9659 112.048 45.3215 111.662 45.5882C111.277 45.8548 110.753 45.9882 110.089 45.9882Z" fill="black"/>
<path d="M115.33 45.9882C114.85 45.9882 114.418 45.8845 114.033 45.6771C113.647 45.4696 113.345 45.1822 113.126 44.8148C112.913 44.4415 112.806 44.0208 112.806 43.5526C112.806 43.0845 112.913 42.6667 113.126 42.2993C113.345 41.9319 113.647 41.6445 114.033 41.4371C114.418 41.2296 114.85 41.1259 115.33 41.1259C115.816 41.1259 116.252 41.2296 116.637 41.4371C117.022 41.6445 117.322 41.9319 117.535 42.2993C117.754 42.6667 117.864 43.0845 117.864 43.5526C117.864 44.0208 117.754 44.4415 117.535 44.8148C117.322 45.1822 117.022 45.4696 116.637 45.6771C116.252 45.8845 115.816 45.9882 115.33 45.9882ZM115.33 45.0371C115.739 45.0371 116.077 44.9008 116.344 44.6282C116.61 44.3556 116.744 43.9971 116.744 43.5526C116.744 43.1082 116.61 42.7496 116.344 42.4771C116.077 42.2045 115.739 42.0682 115.33 42.0682C114.922 42.0682 114.584 42.2045 114.317 42.4771C114.056 42.7496 113.926 43.1082 113.926 43.5526C113.926 43.9971 114.056 44.3556 114.317 44.6282C114.584 44.9008 114.922 45.0371 115.33 45.0371Z" fill="black"/>
<path d="M119.984 41.8726C120.304 41.3748 120.867 41.1259 121.673 41.1259V42.1837C121.578 42.1659 121.492 42.1571 121.415 42.1571C120.983 42.1571 120.645 42.2845 120.402 42.5393C120.159 42.7882 120.037 43.1496 120.037 43.6237V45.9259H118.926V41.1793H119.984V41.8726Z" fill="black"/>
<path d="M124.099 45.9882C123.714 45.9882 123.338 45.9378 122.971 45.8371C122.603 45.7363 122.31 45.6089 122.091 45.4548L122.517 44.6104C122.731 44.7526 122.985 44.8682 123.282 44.9571C123.584 45.04 123.88 45.0815 124.171 45.0815C124.834 45.0815 125.166 44.9067 125.166 44.5571C125.166 44.3911 125.08 44.2756 124.908 44.2104C124.742 44.1452 124.473 44.083 124.099 44.0237C123.708 43.9645 123.388 43.8963 123.139 43.8193C122.897 43.7422 122.683 43.6089 122.499 43.4193C122.322 43.2237 122.233 42.9541 122.233 42.6104C122.233 42.16 122.419 41.8015 122.793 41.5348C123.172 41.2622 123.682 41.1259 124.322 41.1259C124.648 41.1259 124.974 41.1645 125.299 41.2415C125.625 41.3126 125.892 41.4104 126.099 41.5348L125.673 42.3793C125.27 42.1422 124.817 42.0237 124.313 42.0237C123.987 42.0237 123.738 42.0741 123.566 42.1748C123.4 42.2696 123.317 42.3971 123.317 42.5571C123.317 42.7348 123.406 42.8622 123.584 42.9393C123.768 43.0104 124.049 43.0785 124.428 43.1437C124.808 43.203 125.119 43.2711 125.362 43.3482C125.605 43.4252 125.812 43.5556 125.984 43.7393C126.162 43.923 126.251 44.1837 126.251 44.5215C126.251 44.9659 126.058 45.3215 125.673 45.5882C125.288 45.8548 124.763 45.9882 124.099 45.9882Z" fill="black"/>
<path d="M53.7989 33.6186H35.5768V26.5451C35.5768 25.8444 35.2109 25.3804 34.4791 25.1532C33.7473 24.9259 32.1373 24.8123 29.6491 24.8123V33.6186H10V14.0742H23.941C35.5036 14.0742 42.8583 14.2731 46.0051 14.6708C51.201 15.3336 53.7989 16.9055 53.7989 19.3864C53.7989 20.8636 53.2135 21.8484 52.0426 22.3408C50.6521 22.9279 47.6517 23.2877 43.0413 23.4203C47.7249 23.7423 50.7619 24.2252 52.1523 24.8691C53.2501 25.3804 53.7989 26.3463 53.7989 27.7667V33.6186ZM35.5768 20.0114V18.9319C35.5768 18.4206 35.3207 18.0607 34.8084 17.8524C34.0766 17.5684 32.6496 17.4263 30.5273 17.4263H29.6491V21.7443C32.2105 21.7443 33.8205 21.6401 34.4791 21.4318C35.2109 21.2045 35.5768 20.7311 35.5768 20.0114Z" fill="black"/>
<path d="M103.526 21.2329C103.526 22.8048 102.574 23.9032 100.671 24.5282C98.1833 25.3615 93.3533 25.7781 86.1816 25.7781H80.9125V33.6186H61.2634V14.0742H81.0223C85.7791 14.0742 89.4016 14.1405 91.8897 14.2731C94.3779 14.3867 96.5733 14.6518 98.476 15.0685C100.379 15.4851 101.696 15.9586 102.428 16.4889C103.16 17.0002 103.526 18.0134 103.526 19.5285V21.2329ZM87.0598 20.608V19.0455C87.0598 18.3638 86.6573 17.9282 85.8523 17.7388C85.1205 17.5305 83.4739 17.4263 80.9125 17.4263V22.3976H82.3396C84.2423 22.3976 85.4864 22.2745 86.0718 22.0283C86.7304 21.7632 87.0598 21.2897 87.0598 20.608Z" fill="black"/>
<path d="M149.63 28.7893C149.63 29.9067 149.3 30.7116 148.642 31.204C148.056 31.6774 147.032 32.1225 145.568 32.5391C144.104 32.9558 142.055 33.2588 139.421 33.4482C136.786 33.6186 133.64 33.7038 129.98 33.7038C126.029 33.7038 122.772 33.6092 120.211 33.4198C117.649 33.2304 115.6 32.9084 114.064 32.4539C112.6 31.9994 111.502 31.4691 110.77 30.8631C110.112 30.2381 109.783 29.2533 109.783 27.9087V27.1701H126.248V28.9882C126.248 29.651 126.395 30.1056 126.687 30.3518C127.053 30.598 127.931 30.7211 129.322 30.7211C131.664 30.7211 132.835 30.1908 132.835 29.1302C132.835 28.4485 132.688 27.9371 132.395 27.5962C132.103 27.2553 131.225 26.8955 129.761 26.5167C122.955 25.2479 118.272 24.3009 115.71 23.676C111.392 22.6344 109.234 21.1004 109.234 19.074C109.234 18.3543 109.38 17.7293 109.673 17.1991C110.039 16.6688 110.734 16.1669 111.758 15.6935C113.222 15.0685 115.271 14.6424 117.906 14.4151C120.54 14.1878 124.053 14.0742 128.444 14.0742C132.688 14.0742 136.018 14.1405 138.433 14.2731C140.921 14.4056 142.97 14.6992 144.58 15.1537C146.19 15.6082 147.251 16.1858 147.764 16.8866C148.056 17.3032 148.203 18.0702 148.203 19.1876V19.4432H131.847V18.5626C131.847 18.0513 131.81 17.7388 131.737 17.6252C131.444 17.1896 130.529 16.9718 128.993 16.9718C126.87 16.9718 125.809 17.4831 125.809 18.5058C125.809 19.3012 126.285 19.8694 127.236 20.2103C128.261 20.5511 131.334 21.1477 136.457 21.9999C142.092 22.9279 145.788 23.9127 147.544 24.9543C148.934 25.7687 149.63 27.047 149.63 28.7893Z" fill="black"/>
<path d="M133.839 42.2338C134.03 41.6472 134.859 41.6472 135.05 42.2338C135.135 42.496 135.38 42.6736 135.655 42.6736C136.272 42.6736 136.528 43.4628 136.03 43.8253C135.806 43.9874 135.713 44.2747 135.798 44.537C135.989 45.1235 135.318 45.6113 134.819 45.2488C134.595 45.0867 134.293 45.0867 134.07 45.2488C133.571 45.6113 132.9 45.1235 133.091 44.537C133.176 44.2747 133.082 43.9874 132.859 43.8253C132.36 43.4628 132.617 42.6736 133.234 42.6736C133.509 42.6736 133.754 42.496 133.839 42.2338Z" fill="black"/>
<path d="M26.0612 42.2338C26.2518 41.6472 27.0815 41.6472 27.2721 42.2338C27.3573 42.496 27.6018 42.6736 27.8776 42.6736C28.4942 42.6736 28.7507 43.4628 28.2517 43.8253C28.0286 43.9874 27.9353 44.2747 28.0205 44.537C28.211 45.1235 27.5398 45.6113 27.0408 45.2488C26.8177 45.0867 26.5156 45.0867 26.2925 45.2488C25.7935 45.6113 25.1222 45.1235 25.3128 44.537C25.398 44.2747 25.3047 43.9874 25.0816 43.8253C24.5826 43.4628 24.839 42.6736 25.4557 42.6736C25.7315 42.6736 25.976 42.496 26.0612 42.2338Z" fill="black"/>
</svg>
